<svg width="100" height="30" viewBox="0 0 100 30" fill="none" xmlns="http://www.w3.org/2000/svg">
<rect width="100" height="30" rx="5" fill="#613D2B"/>
<path d="M23.4582 8.976H27.1122C27.6162 8.976 28.0735 9.05533 28.4842 9.214C28.8949 9.37267 29.2449 9.592 29.5342 9.872C29.8329 10.152 30.0615 10.488 30.2202 10.88C30.3789 11.2627 30.4582 11.6827 30.4582 12.14C30.4582 12.476 30.4022 12.7933 30.2902 13.092C30.1782 13.3813 30.0242 13.6473 29.8282 13.89C29.6322 14.1233 29.4035 14.3333 29.1422 14.52C28.8809 14.6973 28.6055 14.8373 28.3162 14.94L28.3022 15.038L30.9902 18.888V19H28.8202L26.2302 15.234H25.3482V19H23.4582V8.976ZM27.0982 13.498C27.5275 13.498 27.8775 13.3673 28.1482 13.106C28.4282 12.8447 28.5682 12.5133 28.5682 12.112C28.5682 11.9347 28.5355 11.762 28.4702 11.594C28.4142 11.426 28.3255 11.2767 28.2042 11.146C28.0829 11.0153 27.9289 10.9127 27.7422 10.838C27.5649 10.754 27.3595 10.712 27.1262 10.712H25.3482V13.498H27.0982ZM38.2751 17.348C37.9578 17.908 37.5285 18.3607 36.9871 18.706C36.4551 19.0513 35.8018 19.224 35.0271 19.224C34.5045 19.224 34.0191 19.1353 33.5711 18.958C33.1325 18.7713 32.7498 18.5147 32.4231 18.188C32.0965 17.8613 31.8398 17.4787 31.6531 17.04C31.4758 16.592 31.3871 16.102 31.3871 15.57C31.3871 15.0753 31.4758 14.6087 31.6531 14.17C31.8305 13.722 32.0778 13.3347 32.3951 13.008C32.7125 12.672 33.0858 12.406 33.5151 12.21C33.9538 12.014 34.4345 11.916 34.9571 11.916C35.5078 11.916 35.9978 12.0093 36.4271 12.196C36.8565 12.3733 37.2158 12.6253 37.5051 12.952C37.7945 13.2693 38.0138 13.6473 38.1631 14.086C38.3125 14.5247 38.3871 15.0007 38.3871 15.514C38.3871 15.5793 38.3871 15.6353 38.3871 15.682C38.3778 15.738 38.3731 15.7893 38.3731 15.836C38.3638 15.8827 38.3591 15.934 38.3591 15.99H33.1931C33.2305 16.27 33.3051 16.5127 33.4171 16.718C33.5385 16.914 33.6831 17.082 33.8511 17.222C34.0285 17.3527 34.2198 17.4507 34.4251 17.516C34.6305 17.572 34.8405 17.6 35.0551 17.6C35.4751 17.6 35.8205 17.5067 36.0911 17.32C36.3711 17.124 36.5905 16.8813 36.7491 16.592L38.2751 17.348ZM36.6091 14.688C36.5998 14.5667 36.5578 14.4313 36.4831 14.282C36.4178 14.1327 36.3151 13.9927 36.1751 13.862C36.0445 13.7313 35.8765 13.624 35.6711 13.54C35.4751 13.456 35.2371 13.414 34.9571 13.414C34.5651 13.414 34.2198 13.526 33.9211 13.75C33.6225 13.974 33.4125 14.2867 33.2911 14.688H36.6091ZM42.7908 22.248C42.3054 22.248 41.8714 22.1827 41.4888 22.052C41.1154 21.9307 40.7888 21.7673 40.5088 21.562C40.2288 21.366 39.9954 21.1467 39.8088 20.904C39.6221 20.6613 39.4868 20.4187 39.4028 20.176L41.1528 19.476C41.2834 19.84 41.4981 20.12 41.7968 20.316C42.0954 20.5213 42.4268 20.624 42.7908 20.624C43.3694 20.624 43.8268 20.442 44.1628 20.078C44.4988 19.7233 44.6668 19.224 44.6668 18.58V18.104H44.5548C44.3401 18.4027 44.0554 18.6407 43.7008 18.818C43.3554 18.986 42.9448 19.07 42.4688 19.07C42.0581 19.07 41.6568 18.986 41.2648 18.818C40.8821 18.65 40.5414 18.412 40.2428 18.104C39.9441 17.7867 39.7014 17.4087 39.5148 16.97C39.3281 16.5313 39.2348 16.0413 39.2348 15.5C39.2348 14.9587 39.3281 14.4687 39.5148 14.03C39.7014 13.582 39.9441 13.204 40.2428 12.896C40.5414 12.5787 40.8821 12.336 41.2648 12.168C41.6568 12 42.0581 11.916 42.4688 11.916C42.9448 11.916 43.3554 12.0047 43.7008 12.182C44.0554 12.35 44.3401 12.5833 44.5548 12.882H44.6668V12.14H46.4168V18.51C46.4168 19.0887 46.3281 19.6067 46.1508 20.064C45.9734 20.5307 45.7261 20.9227 45.4088 21.24C45.0914 21.5667 44.7088 21.814 44.2608 21.982C43.8221 22.1593 43.3321 22.248 42.7908 22.248ZM42.8608 17.418C43.0848 17.418 43.3041 17.376 43.5188 17.292C43.7428 17.208 43.9388 17.0867 44.1068 16.928C44.2748 16.76 44.4101 16.5593 44.5128 16.326C44.6154 16.0833 44.6668 15.808 44.6668 15.5C44.6668 15.192 44.6154 14.9167 44.5128 14.674C44.4101 14.4313 44.2748 14.2307 44.1068 14.072C43.9388 13.904 43.7428 13.778 43.5188 13.694C43.3041 13.61 43.0848 13.568 42.8608 13.568C42.6368 13.568 42.4174 13.61 42.2028 13.694C41.9881 13.778 41.7968 13.904 41.6288 14.072C41.4608 14.24 41.3254 14.4453 41.2228 14.688C41.1201 14.9213 41.0688 15.192 41.0688 15.5C41.0688 15.808 41.1201 16.0833 41.2228 16.326C41.3254 16.5593 41.4608 16.76 41.6288 16.928C41.7968 17.0867 41.9881 17.208 42.2028 17.292C42.4174 17.376 42.6368 17.418 42.8608 17.418ZM49.0023 11.146C48.8436 11.146 48.6896 11.118 48.5403 11.062C48.4003 10.9967 48.2743 10.9127 48.1623 10.81C48.0596 10.698 47.9756 10.572 47.9103 10.432C47.8543 10.292 47.8263 10.138 47.8263 9.97C47.8263 9.802 47.8543 9.648 47.9103 9.508C47.9756 9.368 48.0596 9.24667 48.1623 9.144C48.2743 9.032 48.4003 8.948 48.5403 8.892C48.6896 8.82667 48.8436 8.794 49.0023 8.794C49.329 8.794 49.609 8.91067 49.8423 9.144C50.0756 9.368 50.1923 9.64333 50.1923 9.97C50.1923 10.2967 50.0756 10.5767 49.8423 10.81C49.609 11.034 49.329 11.146 49.0023 11.146ZM48.0923 19V12.14H49.9263V19H48.0923ZM54.3193 19.224C53.8713 19.224 53.47 19.168 53.1153 19.056C52.77 18.944 52.4667 18.7993 52.2053 18.622C51.9533 18.4353 51.7387 18.2253 51.5613 17.992C51.384 17.7493 51.2487 17.5067 51.1553 17.264L52.7933 16.564C52.952 16.9187 53.162 17.1847 53.4233 17.362C53.694 17.53 53.9927 17.614 54.3193 17.614C54.6553 17.614 54.9213 17.5533 55.1173 17.432C55.3133 17.3107 55.4113 17.166 55.4113 16.998C55.4113 16.8113 55.3273 16.662 55.1593 16.55C55.0007 16.4287 54.7207 16.3213 54.3193 16.228L53.3533 16.018C53.1387 15.9713 52.9147 15.8967 52.6813 15.794C52.4573 15.6913 52.252 15.5607 52.0653 15.402C51.8787 15.2433 51.7247 15.052 51.6033 14.828C51.482 14.604 51.4213 14.3427 51.4213 14.044C51.4213 13.708 51.4913 13.4093 51.6313 13.148C51.7807 12.8867 51.9813 12.6673 52.2333 12.49C52.4853 12.3033 52.7793 12.1633 53.1153 12.07C53.4607 11.9673 53.8293 11.916 54.2213 11.916C54.8747 11.916 55.458 12.0467 55.9713 12.308C56.4847 12.56 56.8627 12.966 57.1053 13.526L55.5233 14.17C55.3927 13.8993 55.2013 13.7033 54.9493 13.582C54.6973 13.4607 54.4453 13.4 54.1933 13.4C53.932 13.4 53.7033 13.456 53.5073 13.568C53.3113 13.6707 53.2133 13.806 53.2133 13.974C53.2133 14.1327 53.2927 14.2587 53.4513 14.352C53.6193 14.4453 53.8433 14.5293 54.1233 14.604L55.1733 14.856C55.8733 15.024 56.3913 15.2947 56.7273 15.668C57.0727 16.032 57.2453 16.466 57.2453 16.97C57.2453 17.2687 57.1753 17.5533 57.0353 17.824C56.8953 18.0947 56.6947 18.3373 56.4333 18.552C56.1813 18.7573 55.8733 18.9207 55.5093 19.042C55.1547 19.1633 54.758 19.224 54.3193 19.224ZM59.0586 13.708H57.8546V12.14H59.0586V10.04H60.8926V12.14H62.5726V13.708H60.8926V16.368C60.8926 16.5267 60.9066 16.676 60.9346 16.816C60.9719 16.9467 61.0372 17.0587 61.1306 17.152C61.2612 17.3013 61.4479 17.376 61.6906 17.376C61.8492 17.376 61.9752 17.362 62.0686 17.334C62.1619 17.2967 62.2506 17.25 62.3346 17.194L62.8526 18.804C62.6379 18.9067 62.4046 18.9813 62.1526 19.028C61.9099 19.084 61.6392 19.112 61.3406 19.112C60.9952 19.112 60.6826 19.0607 60.4026 18.958C60.1319 18.846 59.9032 18.6967 59.7166 18.51C59.2779 18.09 59.0586 17.4927 59.0586 16.718V13.708ZM70.3493 17.348C70.032 17.908 69.6027 18.3607 69.0613 18.706C68.5293 19.0513 67.876 19.224 67.1013 19.224C66.5787 19.224 66.0933 19.1353 65.6453 18.958C65.2067 18.7713 64.824 18.5147 64.4973 18.188C64.1707 17.8613 63.914 17.4787 63.7273 17.04C63.55 16.592 63.4613 16.102 63.4613 15.57C63.4613 15.0753 63.55 14.6087 63.7273 14.17C63.9047 13.722 64.152 13.3347 64.4693 13.008C64.7867 12.672 65.16 12.406 65.5893 12.21C66.028 12.014 66.5087 11.916 67.0313 11.916C67.582 11.916 68.072 12.0093 68.5013 12.196C68.9307 12.3733 69.29 12.6253 69.5793 12.952C69.8687 13.2693 70.088 13.6473 70.2373 14.086C70.3867 14.5247 70.4613 15.0007 70.4613 15.514C70.4613 15.5793 70.4613 15.6353 70.4613 15.682C70.452 15.738 70.4473 15.7893 70.4473 15.836C70.438 15.8827 70.4333 15.934 70.4333 15.99H65.2673C65.3047 16.27 65.3793 16.5127 65.4913 16.718C65.6127 16.914 65.7573 17.082 65.9253 17.222C66.1027 17.3527 66.294 17.4507 66.4993 17.516C66.7047 17.572 66.9147 17.6 67.1293 17.6C67.5493 17.6 67.8947 17.5067 68.1653 17.32C68.4453 17.124 68.6647 16.8813 68.8233 16.592L70.3493 17.348ZM68.6833 14.688C68.674 14.5667 68.632 14.4313 68.5573 14.282C68.492 14.1327 68.3893 13.9927 68.2493 13.862C68.1187 13.7313 67.9507 13.624 67.7453 13.54C67.5493 13.456 67.3113 13.414 67.0313 13.414C66.6393 13.414 66.294 13.526 65.9953 13.75C65.6967 13.974 65.4867 14.2867 65.3653 14.688H68.6833ZM71.6326 12.14H73.3546V13.092H73.4666C73.5506 12.924 73.6626 12.77 73.8026 12.63C73.9426 12.49 74.0966 12.3687 74.2646 12.266C74.442 12.1633 74.6286 12.084 74.8246 12.028C75.03 11.972 75.2306 11.944 75.4266 11.944C75.6693 11.944 75.8746 11.9673 76.0426 12.014C76.22 12.0607 76.3693 12.1213 76.4906 12.196L76.0006 13.862C75.8886 13.806 75.7626 13.764 75.6226 13.736C75.492 13.6987 75.3286 13.68 75.1326 13.68C74.8806 13.68 74.652 13.7313 74.4466 13.834C74.2413 13.9273 74.064 14.0627 73.9146 14.24C73.7746 14.4173 73.6626 14.6273 73.5786 14.87C73.504 15.1033 73.4666 15.36 73.4666 15.64V19H71.6326V12.14Z" fill="white"/>
</svg>
