<svg width="100" height="30" viewBox="0 0 100 30" fill="none" xmlns="http://www.w3.org/2000/svg">
<rect x="1" y="1" width="98" height="28" rx="4" stroke="#613D2B" stroke-width="2"/>
<path d="M32.2277 8.976H34.1177V17.208H38.3597V19H32.2277V8.976ZM42.7302 11.916C43.2622 11.916 43.7476 12.0093 44.1862 12.196C44.6342 12.3733 45.0169 12.6253 45.3342 12.952C45.6609 13.2693 45.9129 13.652 46.0902 14.1C46.2769 14.548 46.3702 15.038 46.3702 15.57C46.3702 16.102 46.2769 16.592 46.0902 17.04C45.9129 17.488 45.6609 17.8753 45.3342 18.202C45.0169 18.5193 44.6342 18.7713 44.1862 18.958C43.7476 19.1353 43.2622 19.224 42.7302 19.224C42.1982 19.224 41.7082 19.1353 41.2602 18.958C40.8216 18.7713 40.4389 18.5193 40.1122 18.202C39.7949 17.8753 39.5429 17.488 39.3562 17.04C39.1789 16.592 39.0902 16.102 39.0902 15.57C39.0902 15.038 39.1789 14.548 39.3562 14.1C39.5429 13.652 39.7949 13.2693 40.1122 12.952C40.4389 12.6253 40.8216 12.3733 41.2602 12.196C41.7082 12.0093 42.1982 11.916 42.7302 11.916ZM42.7302 17.53C42.9636 17.53 43.1876 17.488 43.4022 17.404C43.6262 17.3107 43.8222 17.18 43.9902 17.012C44.1582 16.844 44.2889 16.6387 44.3822 16.396C44.4849 16.1533 44.5362 15.878 44.5362 15.57C44.5362 15.262 44.4849 14.9867 44.3822 14.744C44.2889 14.5013 44.1582 14.296 43.9902 14.128C43.8222 13.96 43.6262 13.834 43.4022 13.75C43.1876 13.6567 42.9636 13.61 42.7302 13.61C42.4876 13.61 42.2589 13.6567 42.0442 13.75C41.8296 13.834 41.6382 13.96 41.4702 14.128C41.3022 14.296 41.1669 14.5013 41.0642 14.744C40.9709 14.9867 40.9242 15.262 40.9242 15.57C40.9242 15.878 40.9709 16.1533 41.0642 16.396C41.1669 16.6387 41.3022 16.844 41.4702 17.012C41.6382 17.18 41.8296 17.3107 42.0442 17.404C42.2589 17.488 42.4876 17.53 42.7302 17.53ZM50.7126 22.248C50.2273 22.248 49.7933 22.1827 49.4106 22.052C49.0373 21.9307 48.7106 21.7673 48.4306 21.562C48.1506 21.366 47.9173 21.1467 47.7306 20.904C47.544 20.6613 47.4086 20.4187 47.3246 20.176L49.0746 19.476C49.2053 19.84 49.42 20.12 49.7186 20.316C50.0173 20.5213 50.3486 20.624 50.7126 20.624C51.2913 20.624 51.7486 20.442 52.0846 20.078C52.4206 19.7233 52.5886 19.224 52.5886 18.58V18.104H52.4766C52.262 18.4027 51.9773 18.6407 51.6226 18.818C51.2773 18.986 50.8666 19.07 50.3906 19.07C49.98 19.07 49.5786 18.986 49.1866 18.818C48.804 18.65 48.4633 18.412 48.1646 18.104C47.866 17.7867 47.6233 17.4087 47.4366 16.97C47.25 16.5313 47.1566 16.0413 47.1566 15.5C47.1566 14.9587 47.25 14.4687 47.4366 14.03C47.6233 13.582 47.866 13.204 48.1646 12.896C48.4633 12.5787 48.804 12.336 49.1866 12.168C49.5786 12 49.98 11.916 50.3906 11.916C50.8666 11.916 51.2773 12.0047 51.6226 12.182C51.9773 12.35 52.262 12.5833 52.4766 12.882H52.5886V12.14H54.3386V18.51C54.3386 19.0887 54.25 19.6067 54.0726 20.064C53.8953 20.5307 53.648 20.9227 53.3306 21.24C53.0133 21.5667 52.6306 21.814 52.1826 21.982C51.744 22.1593 51.254 22.248 50.7126 22.248ZM50.7826 17.418C51.0066 17.418 51.226 17.376 51.4406 17.292C51.6646 17.208 51.8606 17.0867 52.0286 16.928C52.1966 16.76 52.332 16.5593 52.4346 16.326C52.5373 16.0833 52.5886 15.808 52.5886 15.5C52.5886 15.192 52.5373 14.9167 52.4346 14.674C52.332 14.4313 52.1966 14.2307 52.0286 14.072C51.8606 13.904 51.6646 13.778 51.4406 13.694C51.226 13.61 51.0066 13.568 50.7826 13.568C50.5586 13.568 50.3393 13.61 50.1246 13.694C49.91 13.778 49.7186 13.904 49.5506 14.072C49.3826 14.24 49.2473 14.4453 49.1446 14.688C49.042 14.9213 48.9906 15.192 48.9906 15.5C48.9906 15.808 49.042 16.0833 49.1446 16.326C49.2473 16.5593 49.3826 16.76 49.5506 16.928C49.7186 17.0867 49.91 17.208 50.1246 17.292C50.3393 17.376 50.5586 17.418 50.7826 17.418ZM56.9242 11.146C56.7655 11.146 56.6115 11.118 56.4622 11.062C56.3222 10.9967 56.1962 10.9127 56.0842 10.81C55.9815 10.698 55.8975 10.572 55.8322 10.432C55.7762 10.292 55.7482 10.138 55.7482 9.97C55.7482 9.802 55.7762 9.648 55.8322 9.508C55.8975 9.368 55.9815 9.24667 56.0842 9.144C56.1962 9.032 56.3222 8.948 56.4622 8.892C56.6115 8.82667 56.7655 8.794 56.9242 8.794C57.2508 8.794 57.5308 8.91067 57.7642 9.144C57.9975 9.368 58.1142 9.64333 58.1142 9.97C58.1142 10.2967 57.9975 10.5767 57.7642 10.81C57.5308 11.034 57.2508 11.146 56.9242 11.146ZM56.0142 19V12.14H57.8482V19H56.0142ZM61.2472 13.036H61.3592C61.5739 12.6907 61.8632 12.42 62.2272 12.224C62.5912 12.0187 63.0065 11.916 63.4732 11.916C63.9025 11.916 64.2805 11.986 64.6072 12.126C64.9339 12.266 65.1999 12.4667 65.4052 12.728C65.6199 12.98 65.7785 13.288 65.8812 13.652C65.9932 14.0067 66.0492 14.4033 66.0492 14.842V19H64.2152V15.066C64.2152 14.5713 64.1032 14.2073 63.8792 13.974C63.6645 13.7313 63.3472 13.61 62.9272 13.61C62.6752 13.61 62.4512 13.666 62.2552 13.778C62.0685 13.8807 61.9052 14.0253 61.7652 14.212C61.6345 14.3893 61.5319 14.604 61.4572 14.856C61.3919 15.0987 61.3592 15.36 61.3592 15.64V19H59.5252V12.14H61.2472V13.036Z" fill="#613D2B"/>
</svg>
